<svg xmlns="http://www.w3.org/2000/svg" viewBox="0 0 260 220" role="img" aria-label="Cinder scout">
  <defs>
    <radialGradient id="fire" cx=".48" cy=".42" r=".65">
      <stop offset="0" stop-color="#ffe18a"/>
      <stop offset=".45" stop-color="#ee6339"/>
      <stop offset="1" stop-color="#4b1b16"/>
    </radialGradient>
  </defs>
  <ellipse cx="130" cy="195" rx="70" ry="14" fill="#000" opacity=".28"/>
  <path d="M132 17c43 39 53 78 25 122-22 36-77 34-95-2-18-37 8-62 24-82 0 27 17 34 34 26 22-11 11-39 12-64z" fill="url(#fire)"/>
  <path d="M86 113c20 24 63 25 87 0v36c0 24-18 43-43 43s-44-19-44-43z" fill="#32231c"/>
  <circle cx="111" cy="139" r="8" fill="#ffd36c"/>
  <circle cx="151" cy="139" r="8" fill="#ffd36c"/>
  <path d="M78 154 38 174M182 154l41 20" stroke="#783222" stroke-width="12" stroke-linecap="round"/>
</svg>
